<svg width="203" height="38" viewBox="0 0 203 38" fill="none" xmlns="http://www.w3.org/2000/svg">
    <path d="M152.826 30.208C150.798 30.208 149.169 29.6533 147.938 28.544C146.707 27.4173 146.031 25.918 145.91 24.046H148.042C148.163 25.3287 148.64 26.3427 149.472 27.088C150.304 27.8333 151.422 28.206 152.826 28.206C154.143 28.206 155.192 27.946 155.972 27.426C156.769 26.8887 157.168 26.0913 157.168 25.034C157.168 24.306 156.899 23.6993 156.362 23.214C155.842 22.7287 155.192 22.382 154.412 22.174C153.632 21.9487 152.774 21.6973 151.838 21.42C150.919 21.1253 150.07 20.822 149.29 20.51C148.51 20.198 147.851 19.6953 147.314 19.002C146.794 18.3087 146.534 17.4507 146.534 16.428C146.534 14.9893 147.106 13.828 148.25 12.944C149.394 12.0427 150.876 11.592 152.696 11.592C154.516 11.592 156.007 12.086 157.168 13.074C158.347 14.0447 158.997 15.3447 159.118 16.974H157.038C156.934 15.9513 156.483 15.1367 155.686 14.53C154.906 13.906 153.909 13.594 152.696 13.594C151.465 13.594 150.503 13.8453 149.81 14.348C149.117 14.8507 148.77 15.544 148.77 16.428C148.77 17.052 148.961 17.5807 149.342 18.014C149.741 18.43 150.252 18.7593 150.876 19.002C151.517 19.2273 152.219 19.4353 152.982 19.626C153.745 19.7993 154.507 20.0073 155.27 20.25C156.033 20.4927 156.726 20.796 157.35 21.16C157.991 21.5067 158.503 22.0093 158.884 22.668C159.283 23.3267 159.482 24.1153 159.482 25.034C159.482 26.646 158.858 27.9113 157.61 28.83C156.379 29.7487 154.785 30.208 152.826 30.208ZM167.797 30.208C165.821 30.208 164.261 29.5493 163.117 28.232C161.991 26.8973 161.427 25.3027 161.427 23.448C161.427 21.5933 161.991 20.0073 163.117 18.69C164.261 17.3553 165.821 16.688 167.797 16.688C169.323 16.688 170.649 17.104 171.775 17.936C172.902 18.768 173.561 19.8947 173.751 21.316H171.697C171.559 20.5187 171.125 19.86 170.397 19.34C169.669 18.82 168.811 18.56 167.823 18.56C166.454 18.56 165.405 19.0193 164.677 19.938C163.949 20.8567 163.585 22.0267 163.585 23.448C163.585 24.8693 163.949 26.0393 164.677 26.958C165.423 27.8767 166.471 28.336 167.823 28.336C168.811 28.336 169.643 28.1107 170.319 27.66C170.995 27.192 171.455 26.5593 171.697 25.762H173.725C173.5 27.114 172.867 28.1973 171.827 29.012C170.787 29.8093 169.444 30.208 167.797 30.208ZM180.852 16.688C182.464 16.688 183.799 17.13 184.856 18.014C185.931 18.8807 186.468 20.0073 186.468 21.394V30H184.44V27.738C184.094 28.4833 183.513 29.0813 182.698 29.532C181.884 29.9827 180.965 30.208 179.942 30.208C178.625 30.208 177.542 29.844 176.692 29.116C175.843 28.3707 175.418 27.426 175.418 26.282C175.418 24.93 175.852 23.89 176.718 23.162C177.602 22.434 178.911 22.07 180.644 22.07H183.686C184.189 22.07 184.44 21.8447 184.44 21.394V21.368C184.44 20.484 184.102 19.782 183.426 19.262C182.75 18.7247 181.901 18.456 180.878 18.456C179.925 18.456 179.119 18.716 178.46 19.236C177.802 19.756 177.438 20.38 177.368 21.108H175.418C175.54 19.8427 176.112 18.794 177.134 17.962C178.174 17.1127 179.414 16.688 180.852 16.688ZM180.254 28.44C181.572 28.44 182.594 28.0587 183.322 27.296C184.068 26.516 184.44 25.45 184.44 24.098V23.63H180.774C178.625 23.63 177.55 24.5053 177.55 26.256C177.55 26.8973 177.802 27.426 178.304 27.842C178.824 28.2407 179.474 28.44 180.254 28.44ZM189.095 30V16.896H191.175V19.418C191.505 18.534 192.051 17.858 192.813 17.39C193.576 16.922 194.469 16.688 195.491 16.688C196.965 16.688 198.143 17.1733 199.027 18.144C199.929 19.1147 200.379 20.3973 200.379 21.992V30H198.299V22.33C198.299 21.2033 197.996 20.302 197.389 19.626C196.8 18.9327 196.011 18.586 195.023 18.586C193.897 18.586 192.969 18.9933 192.241 19.808C191.531 20.6227 191.175 21.6627 191.175 22.928V30H189.095Z" fill="url(#paint0_linear_1193_3806)"/>
    <path d="M0.344286 11.7528H7.91858V30H14.2879V11.7528H21.8622V5.89996H0.344286V11.7528ZM23.7396 30H42.3311V24.1471H30.1089V20.5321H39.9211V15.3678H30.1089V11.7528H42.3311V5.89996H23.7396V30ZM45.2414 30H51.6107V17.95L51.0942 14.8514H51.4385L59.8735 30H67.62V5.89996H61.2507V17.95L61.7671 21.0486H61.4228L52.9878 5.89996H45.2414V30ZM71.4165 30H90.008V24.1471H77.7858V20.5321H87.598V15.3678H77.7858V11.7528H90.008V5.89996H71.4165V30ZM91.0247 11.7528H98.599V30H104.968V11.7528H112.543V5.89996H91.0247V11.7528Z" fill="white"/>
    <line x1="129.5" y1="4" x2="129.5" y2="33" stroke="white"/>
    <defs>
        <linearGradient id="paint0_linear_1193_3806" x1="145" y1="17" x2="216.401" y2="15.3156" gradientUnits="userSpaceOnUse">
            <stop offset="0.0378695" stop-color="#73E0A9"/>
            <stop offset="1" stop-color="#3F5EFF"/>
        </linearGradient>
    </defs>
</svg>
